<svg width="600" height="600" viewBox="0 0 600 600" fill="none" xmlns="http://www.w3.org/2000/svg">
<g clip-path="url(#clip0_381_10)">
<g clip-path="url(#clip1_381_10)">
<g clip-path="url(#clip2_381_10)">
<path d="M226.57 55.2323C236.213 45.5893 247.661 37.94 260.26 32.7213C272.859 27.5025 286.363 24.8164 300 24.8164C313.637 24.8164 327.141 27.5025 339.74 32.7213C352.339 37.94 363.787 45.5893 373.43 55.2323C383.073 64.8753 390.723 76.3232 395.941 88.9224C401.16 101.522 403.846 115.025 403.846 128.663C403.846 142.3 401.16 155.804 395.941 168.403C390.723 181.002 383.073 192.45 373.43 202.093L312.238 263.285C308.993 266.531 304.59 268.354 300 268.354C295.41 268.354 291.007 266.531 287.762 263.285L226.57 202.093C207.095 182.618 196.154 156.204 196.154 128.663C196.154 101.121 207.095 74.7072 226.57 55.2323ZM55.7219 227.059C36.2469 246.534 25.306 272.948 25.306 300.49C25.306 328.031 36.2469 354.445 55.7219 373.92C75.1968 393.395 101.61 404.336 129.152 404.336C156.694 404.336 183.108 393.395 202.582 373.92L263.774 312.728C267.02 309.482 268.844 305.08 268.844 300.49C268.844 295.899 267.02 291.497 263.774 288.251L202.582 227.059C183.108 207.584 156.694 196.643 129.152 196.643C101.61 196.643 75.1968 207.584 55.7219 227.059ZM373.43 544.768C363.787 554.411 352.339 562.06 339.74 567.279C327.141 572.497 313.637 575.184 300 575.184C286.363 575.184 272.859 572.497 260.26 567.279C247.661 562.06 236.213 554.411 226.57 544.768C216.927 535.125 209.277 523.677 204.059 511.078C198.84 498.478 196.154 484.975 196.154 471.337C196.154 457.7 198.84 444.196 204.059 431.597C209.277 418.998 216.927 407.55 226.57 397.907L287.762 336.715C291.007 333.469 295.41 331.646 300 331.646C304.59 331.646 308.993 333.469 312.238 336.715L373.43 397.907C392.905 417.382 403.846 443.796 403.846 471.337C403.846 498.879 392.905 525.293 373.43 544.768ZM544.768 373.43C554.411 363.787 562.06 352.339 567.279 339.74C572.498 327.141 575.184 313.637 575.184 300C575.184 286.363 572.498 272.859 567.279 260.26C562.06 247.661 554.411 236.213 544.768 226.57C535.125 216.927 523.677 209.277 511.078 204.059C498.478 198.84 484.975 196.154 471.337 196.154C457.7 196.154 444.196 198.84 431.597 204.059C418.998 209.277 407.55 216.927 397.907 226.57L336.715 287.762C333.469 291.007 331.646 295.41 331.646 300C331.646 304.59 333.469 308.993 336.715 312.238L397.907 373.43C417.382 392.905 443.796 403.846 471.337 403.846C498.879 403.846 525.293 392.905 544.768 373.43Z" fill="#32CD32"/>
</g>
</g>
</g>
<defs>
<clipPath id="clip0_381_10">
<rect width="600" height="600" fill="white"/>
</clipPath>
<clipPath id="clip1_381_10">
<rect width="600" height="600" fill="white"/>
</clipPath>
<clipPath id="clip2_381_10">
<rect width="452" height="452" fill="white" transform="translate(-19.6123 300) rotate(-45)"/>
</clipPath>
</defs>
</svg>
