<svg width="734" height="735" viewBox="0 0 734 735" fill="none" xmlns="http://www.w3.org/2000/svg">
<path d="M268.771 41.2553C281.629 28.398 296.893 18.199 313.691 11.2406C330.49 4.2823 348.495 0.700871 366.678 0.700871C384.861 0.700871 402.866 4.28229 419.665 11.2406C436.464 18.199 451.728 28.398 464.585 41.2553C477.443 54.1127 487.642 69.3765 494.6 86.1755C501.559 102.974 505.14 120.979 505.14 139.162C505.14 157.345 501.558 175.35 494.6 192.149C487.642 208.948 477.443 224.212 464.585 237.07L382.996 318.659C378.668 322.987 372.799 325.418 366.678 325.418C360.558 325.418 354.688 322.987 350.361 318.659L268.771 237.07C242.805 211.103 228.217 175.885 228.217 139.162C228.217 102.44 242.805 67.2219 268.771 41.2553ZM40.9741 270.358C15.0075 296.325 0.419667 331.543 0.419667 368.265C0.419667 404.987 15.0075 440.206 40.9741 466.172C66.9407 492.139 102.159 506.727 138.881 506.727C175.603 506.727 210.822 492.139 236.788 466.172L318.378 384.583C322.705 380.255 325.137 374.385 325.137 368.265C325.137 362.145 322.705 356.275 318.378 351.947L236.788 270.358C210.822 244.391 175.603 229.803 138.881 229.803C102.159 229.803 66.9407 244.391 40.9741 270.358ZM464.585 693.969C451.728 706.827 436.464 717.026 419.665 723.984C402.866 730.942 384.861 734.524 366.678 734.524C348.495 734.524 330.49 730.942 313.691 723.984C296.893 717.026 281.629 706.827 268.771 693.969C255.914 681.112 245.715 665.848 238.757 649.049C231.798 632.25 228.217 614.245 228.217 596.062C228.217 577.879 231.798 559.874 238.757 543.075C245.715 526.276 255.914 511.012 268.771 498.155L350.361 416.566C354.688 412.238 360.558 409.807 366.678 409.807C372.799 409.807 378.668 412.238 382.996 416.566L464.585 498.155C490.552 524.122 505.14 559.34 505.14 596.062C505.14 632.784 490.552 668.003 464.585 693.969ZM693.035 465.519C705.893 452.662 716.092 437.398 723.05 420.599C730.008 403.8 733.59 385.795 733.59 367.612C733.59 349.429 730.008 331.424 723.05 314.625C716.092 297.826 705.893 282.563 693.035 269.705C680.178 256.848 664.914 246.649 648.115 239.691C631.316 232.732 613.311 229.151 595.128 229.151C576.945 229.151 558.94 232.732 542.141 239.691C525.342 246.649 510.079 256.848 497.221 269.705L415.632 351.294C411.304 355.622 408.873 361.492 408.873 367.612C408.873 373.733 411.304 379.602 415.632 383.93L497.221 465.519C523.188 491.486 558.406 506.074 595.128 506.074C631.851 506.074 667.069 491.486 693.035 465.519Z" fill="#6B6B6B"/>
<path d="M200 200L534 534" stroke="#FB6D31" stroke-width="40" stroke-linecap="round"/>
<path d="M534 200L200 534" stroke="#FB6D31" stroke-width="40" stroke-linecap="round"/>
</svg>